HIERARCHY
ROOT root
{
	OFFSET	0	13.1	24.9
	CHANNELS 6  Xposition Yposition Zposition Xrotation Yrotation Zrotation
	JOINT spine_1
	{
		OFFSET	0	9.99999	0
		CHANNELS 3  Xrotation Yrotation Zrotation
		JOINT spine_2
		{
			OFFSET	0	112	-10
			CHANNELS 3  Xrotation Yrotation Zrotation
			JOINT spine_3
			{
				OFFSET	0	206.5	19.3
				CHANNELS 3  Xrotation Yrotation Zrotation
				JOINT spine_4
				{
					OFFSET	0	110.4	14.6
					CHANNELS 3  Xrotation Yrotation Zrotation
					JOINT neck_1
					{
						OFFSET	0	71.8	-50.3
						CHANNELS 3  Xrotation Yrotation Zrotation
						JOINT neck_2
						{
							OFFSET	0	86.2	-25.8
							CHANNELS 3  Xrotation Yrotation Zrotation
							JOINT head_ee
							{
								OFFSET	0	179.8	-8.7
								CHANNELS 3  Xrotation Yrotation Zrotation
								End Site
								{
									OFFSET	1	0	0
								}
							}
						}
					}
					JOINT left_clavicle
					{
						OFFSET	-43.2	22.4	-70.8
						CHANNELS 3  Xrotation Yrotation Zrotation
						JOINT left_shoulder
						{
							OFFSET	-93.9	-5.79999	48.7
							CHANNELS 3  Xrotation Yrotation Zrotation
							JOINT left_elbow
							{
								OFFSET	-291.4	-30.8	15.2
								CHANNELS 3  Xrotation Yrotation Zrotation
								JOINT left_lowarm_twist
								{
									OFFSET	-110.7	-3.89999	13.6
									CHANNELS 3  Xrotation Yrotation Zrotation
									JOINT left_hand
									{
										OFFSET	-110.7	-3.89999	13.6
										CHANNELS 3  Xrotation Yrotation Zrotation
										JOINT left_ee
										{
											OFFSET	-80.8	-5.10001	12.1
											CHANNELS 3  Xrotation Yrotation Zrotation
											End Site
											{
												OFFSET	1	0	0
											}
										}
									}
								}
							}
						}
					}
					JOINT right_clavicle
					{
						OFFSET	43.2	22.4	-70.8
						CHANNELS 3  Xrotation Yrotation Zrotation
						JOINT right_shoulder
						{
							OFFSET	93.9	-5.79999	48.7
							CHANNELS 3  Xrotation Yrotation Zrotation
							JOINT right_elbow
							{
								OFFSET	291.4	-30.8	15.2
								CHANNELS 3  Xrotation Yrotation Zrotation
								JOINT right_lowarm_twist
								{
									OFFSET	110.7	-3.89999	13.6
									CHANNELS 3  Xrotation Yrotation Zrotation
									JOINT right_hand
									{
										OFFSET	110.7	-3.89999	13.6
										CHANNELS 3  Xrotation Yrotation Zrotation
										JOINT right_ee
										{
											OFFSET	80.8	-5.10001	12.1
											CHANNELS 3  Xrotation Yrotation Zrotation
											End Site
											{
												OFFSET	1	0	0
											}
										}
									}
								}
							}
						}
					}
				}
			}
		}
	}
	JOINT left_hip
	{
		OFFSET	-82.8	-127.5	0.300001
		CHANNELS 3  Xrotation Yrotation Zrotation
		JOINT left_knee
		{
			OFFSET	-28.2	-396.7	2.2
			CHANNELS 3  Xrotation Yrotation Zrotation
			JOINT left_ankle
			{
				OFFSET	-11.7	-411.3	35.4
				CHANNELS 3  Xrotation Yrotation Zrotation
				JOINT left_toes
				{
					OFFSET	0	-60	-88.6
					CHANNELS 3  Xrotation Yrotation Zrotation
					JOINT left_foot_ee
					{
						OFFSET	-22.5	-16.5	-42.2
						CHANNELS 3  Xrotation Yrotation Zrotation
						End Site
						{
							OFFSET	1	0	0
						}
					}
				}
			}
		}
	}
	JOINT right_hip
	{
		OFFSET	82.8	-127.5	0.300001
		CHANNELS 3  Xrotation Yrotation Zrotation
		JOINT right_knee
		{
			OFFSET	28.2	-396.7	2.2
			CHANNELS 3  Xrotation Yrotation Zrotation
			JOINT right_ankle
			{
				OFFSET	11.7	-411.3	35.4
				CHANNELS 3  Xrotation Yrotation Zrotation
				JOINT right_toes
				{
					OFFSET	0	-60	-88.6
					CHANNELS 3  Xrotation Yrotation Zrotation
					JOINT right_foot_ee
					{
						OFFSET	22.5	-16.5	-42.2
						CHANNELS 3  Xrotation Yrotation Zrotation
						End Site
						{
							OFFSET	1	0	0
						}
					}
				}
			}
		}
	}
}
MOTION
Frames: 6
Frame Time: 0.02
3772.45 778.233 -1438.88 -90.4618 80.4095 95.2896 2.39711 -0.267399 -2.40601 2.40032 -0.113803 -2.41814 2.40465 0.29657 -2.40259 2.39661 -0.0864808 -2.41927 -2.83345 0.199938 -4.79097 -2.75272 4.11039 -4.96905 -0.0 0.0 -0.0 10.5155 -26.696 19.9429 -11.6178 -17.794 64.5181 1.29668 -32.7126 0.380574 23.8109 0.215842 -3.01215 1.76256 4.24143 13.521 -0.0 0.0 -0.0 1.41246 -2.82991 -2.98441 -24.5241 7.81772 -65.2394 1.54046 37.3446 -0.520613 4.79901 -0.144194 0.595855 2.01258 -9.86341 -17.2764 0.0 0.0 0.0 16.5829 -20.0134 -4.80484 -14.5747 0.320803 2.20765 -3.6355 12.9959 0.537894 19.7144 -0.0 -0.0 -0.0 0.0 -0.0 12.6501 -36.6445 -2.81562 -4.56304 -0.160795 -0.681644 -1.09798 29.3743 -0.203966 0.546175 -0.0 -0.0 0.0 0.0 0.0 
3772.74 776.191 -1440.54 -90.709 80.5126 95.4838 2.38417 -0.28415 -2.37936 2.38731 -0.132214 -2.39261 2.39239 0.274599 -2.38048 2.38449 -0.104688 -2.39397 -2.8519 0.187709 -4.81925 -2.77042 4.1092 -4.99928 -0.0 0.0 -0.0 10.554 -26.5691 20.0437 -11.2105 -17.7424 64.3818 1.27668 -32.309 0.369823 23.8092 0.215871 -3.01194 1.55099 3.66721 11.8667 -0.0 0.0 -0.0 1.30355 -3.08488 -2.80421 -24.2873 7.92143 -65.5813 1.55845 37.6659 -0.53157 4.82336 -0.144797 0.598907 2.00942 -10.0979 -17.3369 0.0 0.0 0.0 16.7428 -20.0858 -5.01778 -13.9847 0.318789 2.11714 -3.70527 11.5568 0.547395 19.5379 -0.0 -0.0 -0.0 0.0 -0.0 12.1397 -36.6909 -3.27267 -5.05328 -0.174826 -0.755572 -0.664673 29.3735 -0.123321 0.819387 -0.0 -0.0 0.0 0.0 0.0 
3772.34 777.094 -1441.64 -90.8704 80.5642 95.7004 2.28837 -0.293716 -2.40735 2.29159 -0.13998 -2.42115 2.29713 0.275781 -2.40947 2.28905 -0.108096 -2.42278 -2.82694 0.191716 -4.80381 -2.74585 4.10595 -4.984 -0.0 0.0 -0.0 10.5683 -26.4761 20.086 -10.9724 -17.6958 64.2881 1.25939 -31.9572 0.360628 23.8047 0.215949 -3.01137 1.40119 3.2801 10.7052 -0.0 0.0 -0.0 1.15964 -3.25756 -2.55187 -24.2028 7.98176 -65.8159 1.56867 37.8471 -0.537825 4.85054 -0.14547 0.602314 2.00745 -10.2611 -17.3804 0.0 0.0 0.0 16.8064 -20.1316 -5.21227 -13.5821 0.31688 2.0554 -3.70964 10.5195 0.547614 19.4248 -0.0 -0.0 -0.0 0.0 -0.0 11.8993 -36.6754 -3.40973 -5.42461 -0.185032 -0.811646 -0.360448 29.3693 -0.0668135 1.0109 -0.0 -0.0 0.0 0.0 0.0 
3773.29 775.691 -1442.13 -91.4437 80.363 96.3058 2.23554 -0.341689 -2.42353 2.23879 -0.186829 -2.44034 2.24645 0.235019 -2.43618 2.2382 -0.152561 -2.44272 -2.82582 0.199669 -4.77514 -2.74561 4.09798 -4.95297 -0.0 0.0 -0.0 10.5761 -26.4091 20.111 -10.7937 -17.6648 64.208 1.25641 -31.8964 0.359055 23.8014 0.216005 -3.01096 1.29783 2.9764 9.89022 -0.0 0.0 -0.0 0.968463 -3.392 -2.20862 -24.1896 8.02469 -65.9762 1.55963 37.6869 -0.532292 4.86112 -0.145731 0.603639 2.00238 -10.3969 -17.3934 0.0 0.0 0.0 16.7752 -20.1533 -5.3738 -13.3065 0.315323 2.01314 -3.61692 9.77367 0.533633 19.3651 -0.0 -0.0 -0.0 0.0 -0.0 12.0349 -36.5921 -3.66711 -5.90718 -0.197751 -0.88461 -0.157331 29.4138 -0.0291637 1.14449 -0.0 -0.0 0.0 0.0 0.0 
3770.79 779.119 -1440.34 -91.1712 80.5153 96.0415 2.20201 -0.315402 -2.42788 2.20527 -0.160318 -2.44302 2.21182 0.263092 -2.4341 2.20358 -0.124513 -2.44511 -2.78901 0.247897 -4.6565 -2.71206 4.09477 -4.82423 -0.0 0.0 -0.0 10.6612 -26.3079 20.3135 -10.7067 -17.6736 64.2387 1.25503 -31.8682 0.358326 23.7998 0.216033 -3.01076 1.2335 2.76674 9.37502 -0.0 0.0 -0.0 0.831447 -3.38943 -1.95307 -24.0492 8.09871 -65.9557 1.54618 37.4471 -0.524092 4.86779 -0.145896 0.604476 1.99547 -10.5121 -17.3868 0.0 0.0 0.0 17.1154 -20.1945 -5.44682 -13.0868 0.313936 1.97946 -3.47012 9.20446 0.511741 19.3317 -0.0 -0.0 -0.0 0.0 -0.0 12.329 -36.5055 -3.2112 -6.3998 -0.210101 -0.959201 -0.162228 29.2999 -0.0300255 1.19925 -0.0 -0.0 0.0 0.0 0.0 
3771.58 779.327 -1441.41 -91.1903 80.285 96.1851 2.23045 -0.326844 -2.48989 2.23388 -0.167795 -2.50562 2.24089 0.26525 -2.49719 2.23221 -0.132336 -2.50774 -2.76706 0.25366 -4.60908 -2.69152 4.06937 -4.77505 -0.0 0.0 -0.0 10.6436 -26.1908 20.2869 -10.6877 -17.5898 64.2416 1.2543 -31.8531 0.357938 23.8001 0.216028 -3.01079 1.23161 2.75165 9.35637 -0.0 0.0 -0.0 0.822529 -3.36116 -1.93354 -24.058 8.09302 -65.9418 1.54574 37.4392 -0.523823 4.86725 -0.145883 0.604409 1.99537 -10.5128 -17.3863 0.0 0.0 0.0 17.0124 -20.17 -5.44229 -13.1043 0.314051 1.98214 -3.47023 9.17101 0.511753 19.3282 -0.0 -0.0 -0.0 0.0 -0.0 12.3926 -36.5054 -3.14995 -6.45199 -0.211371 -0.967109 -0.165965 29.2922 -0.0307143 1.19635 -0.0 -0.0 0.0 0.0 0.0 
